<?xml version="1.0" encoding="UTF-8" standalone="no"?>
<!DOCTYPE svg PUBLIC "-//W3C//DTD SVG 1.1//EN" "http://www.w3.org/Graphics/SVG/1.1/DTD/svg11.dtd">
<svg width="100%" height="100%" viewBox="0 0 24 24" version="1.1" xmlns="http://www.w3.org/2000/svg" xmlns:xlink="http://www.w3.org/1999/xlink" xml:space="preserve" xmlns:serif="http://www.serif.com/" style="fill-rule:evenodd;clip-rule:evenodd;stroke-linejoin:round;stroke-miterlimit:1.41421;">
    <g id="Forma-1" serif:id="Forma 1" transform="matrix(1,0,0,1,-1536.49,-217.5)">
        <path d="M1541.2,223.249C1540.92,222.967 1540.92,222.499 1541.2,222.208C1541.5,221.927 1541.95,221.927 1542.25,222.208L1548.49,228.464L1554.75,222.208C1555.03,221.927 1555.5,221.927 1555.78,222.208C1556.07,222.499 1556.07,222.968 1555.78,223.249L1549.53,229.495L1555.78,235.75C1556.07,236.032 1556.07,236.5 1555.78,236.791C1555.5,237.072 1555.03,237.072 1554.75,236.791L1548.49,230.535L1542.25,236.791C1541.95,237.072 1541.5,237.072 1541.2,236.791C1540.92,236.5 1540.92,236.031 1541.2,235.75L1547.45,229.495L1541.2,223.249Z" style="fill:white;fill-rule:nonzero;"/>
    </g>
</svg>
