<?xml version="1.0" encoding="utf-8"?>
<!-- Generator: Adobe Illustrator 17.0.0, SVG Export Plug-In . SVG Version: 6.00 Build 0)  -->
<!DOCTYPE svg PUBLIC "-//W3C//DTD SVG 1.1//EN" "http://www.w3.org/Graphics/SVG/1.1/DTD/svg11.dtd">
<svg version="1.1" id="Layer_1" xmlns="http://www.w3.org/2000/svg" xmlns:xlink="http://www.w3.org/1999/xlink" x="0px" y="0px"
	 width="1080px" height="91.654px" viewBox="0 918.983 1080 91.654" enable-background="new 0 918.983 1080 91.654"
	 xml:space="preserve">
<g>
	<g>
		<path fill="#FFFFFF" d="M0,936.224c0-0.687,0.232-1.236,0.697-1.648s1.043-0.62,1.729-0.62h55.558c0.62,0,1.169,0.19,1.652,0.567
			s0.757,0.944,0.828,1.701v12.818c0,0.62-0.215,1.212-0.645,1.775c-0.43,0.567-1.043,0.849-1.832,0.849H40.172v56.537
			c0,0.62-0.225,1.18-0.669,1.68c-0.447,0.5-1.032,0.75-1.751,0.75H22.61c-0.585,0-1.134-0.233-1.648-0.697
			s-0.771-1.043-0.771-1.733v-56.537H2.427c-0.69,0-1.265-0.222-1.729-0.669S0,949.901,0,949.042V936.224z"/>
		<path fill="#FFFFFF" d="M73.064,936.333c0-0.722,0.19-1.3,0.567-1.729c0.377-0.43,0.948-0.645,1.701-0.645h33.356
			c3.547,0,6.865,0.662,9.965,1.987c3.1,1.324,5.801,3.124,8.108,5.396c2.304,2.272,4.121,4.931,5.446,7.978
			s1.987,6.291,1.987,9.732c0,2.342-0.321,4.568-0.955,6.685c-0.638,2.117-1.522,4.096-2.659,5.939
			c-1.138,1.842-2.487,3.512-4.054,5.009c-1.567,1.497-3.279,2.779-5.139,3.846l13.269,24.991c0.24,0.483,0.549,1.05,0.93,1.705
			c0.377,0.655,0.567,1.222,0.567,1.705c0,0.553-0.18,0.972-0.542,1.265c-0.363,0.292-0.852,0.44-1.472,0.44h-17.71
			c-0.585,0-1.11-0.173-1.574-0.518c-0.465-0.345-0.768-0.81-0.905-1.395l-12.547-23.596h-8.366v23.286
			c0,1.479-0.793,2.219-2.374,2.219H75.325c-0.69,0-1.24-0.18-1.652-0.542c-0.416-0.363-0.62-0.923-0.62-1.677L73.064,936.333
			L73.064,936.333z M113.489,959.257c0-1.032-0.19-2.064-0.567-3.1c-0.38-1.032-0.912-1.98-1.599-2.839
			c-0.69-0.859-1.515-1.582-2.48-2.17c-0.965-0.585-2.032-0.965-3.202-1.134c-0.965-0.067-1.867-0.13-2.712-0.18
			c-0.845-0.053-1.765-0.078-2.761-0.078h-7.126v18.95h9.5c0.62,0,1.169-0.018,1.652-0.053s1.014-0.085,1.599-0.155
			c1.205-0.137,2.29-0.49,3.255-1.06c0.965-0.567,1.772-1.272,2.427-2.117c0.655-0.842,1.152-1.789,1.497-2.839
			C113.317,961.433,113.489,960.359,113.489,959.257z"/>
		<path fill="#FFFFFF" d="M145.606,936.333c0-0.722,0.197-1.3,0.592-1.729c0.395-0.43,0.955-0.645,1.673-0.645h51.225
			c0.757,0,1.342,0.222,1.754,0.669s0.62,1.046,0.62,1.803V949.2c0,0.585-0.208,1.141-0.62,1.673s-1.014,0.796-1.807,0.796h-33.459
			v12.804h25.819c0.655,0,1.194,0.155,1.624,0.465s0.645,0.828,0.645,1.55v11.152c0,0.483-0.19,0.948-0.567,1.395
			c-0.38,0.447-0.93,0.673-1.652,0.673h-25.868v13.219h34.698c1.55,0,2.325,0.789,2.325,2.367v12.976
			c0,0.345-0.137,0.652-0.412,0.926c-0.137,0.962-0.842,1.441-2.117,1.441h-52.208c-0.687,0-1.236-0.18-1.648-0.542
			c-0.412-0.363-0.62-0.923-0.62-1.677L145.606,936.333L145.606,936.333z"/>
		<path fill="#FFFFFF" d="M215.517,936.228c0-0.62,0.19-1.152,0.567-1.599s0.947-0.673,1.705-0.673h16.886
			c0.483,0,0.983,0.12,1.497,0.363c0.518,0.239,0.965,0.655,1.342,1.24c4.371,7.059,8.707,14.012,13.011,20.859
			c4.301,6.851,8.658,13.804,13.061,20.859v-41.359c0.137-0.62,0.412-1.102,0.828-1.444c0.412-0.345,0.895-0.518,1.444-0.518h14.716
			c0.722,0,1.324,0.197,1.807,0.595c0.483,0.395,0.722,0.955,0.722,1.677v72.391c0,0.69-0.208,1.198-0.62,1.522
			c-0.412,0.328-0.979,0.49-1.701,0.49h-16.47c-0.447,0-0.845-0.155-1.187-0.465s-0.708-0.722-1.085-1.24
			c-4.579-7.573-9.105-15.061-13.579-22.462c-4.477-7.4-9.021-14.889-13.631-22.462v44.353c0,0.757-0.173,1.324-0.518,1.705
			c-0.345,0.38-0.965,0.567-1.86,0.567h-14.663c-0.793,0-1.367-0.215-1.729-0.645c-0.363-0.43-0.542-0.955-0.542-1.574
			L215.517,936.228L215.517,936.228z"/>
		<path fill="#FFFFFF" d="M366.343,972.374c0,3.649-0.465,7.119-1.395,10.405c-0.93,3.29-2.254,6.351-3.977,9.19
			s-3.779,5.414-6.171,7.721s-5.044,4.269-7.953,5.886s-6.048,2.867-9.422,3.744s-6.865,1.317-10.482,1.317h-25.456
			c-0.62,0-1.169-0.137-1.652-0.412c-0.483-0.275-0.722-0.859-0.722-1.754v-72.134c0-0.722,0.197-1.307,0.595-1.754
			c0.395-0.447,0.99-0.673,1.782-0.673h25.456c3.614,0,7.101,0.447,10.454,1.342c3.357,0.895,6.488,2.17,9.398,3.822
			s5.569,3.632,7.978,5.939s4.466,4.889,6.171,7.746s3.029,5.939,3.977,9.243C365.871,965.297,366.343,968.76,366.343,972.374z
			 M319.098,952.441v39.707h4.336c0.793,0,1.567-0.025,2.325-0.077c0.757-0.053,1.515-0.113,2.272-0.18
			c2.582-0.208,4.991-0.835,7.228-1.884c2.237-1.05,4.192-2.427,5.861-4.132s2.976-3.709,3.924-6.016
			c0.947-2.307,1.419-4.819,1.419-7.538c0-2.892-0.542-5.551-1.624-7.978c-1.085-2.427-2.557-4.526-4.413-6.298
			s-4.037-3.149-6.53-4.132c-2.497-0.983-5.157-1.472-7.978-1.472L319.098,952.441L319.098,952.441z"/>
		<path fill="#FFFFFF" d="M377.649,922.959c0-1.444,0.31-2.469,0.93-3.071s1.585-0.905,2.895-0.905h11.979
			c1.205,0,2.177,0.303,2.917,0.905c0.74,0.602,1.11,1.627,1.11,3.071v10.07c0,0.412-0.095,0.859-0.285,1.342
			s-0.458,0.948-0.8,1.395c-0.345,0.447-0.768,0.817-1.265,1.109c-0.5,0.292-1.06,0.44-1.677,0.44h-11.979
			c-2.55,0-3.822-1.427-3.822-4.287L377.649,922.959L377.649,922.959z M377.649,949.084c0-1.102,0.31-2.046,0.93-2.839
			s1.582-1.187,2.892-1.187h11.824c0.412,0,0.859,0.095,1.342,0.285s0.93,0.465,1.342,0.828s0.764,0.782,1.057,1.265
			c0.292,0.483,0.44,1.032,0.44,1.652v57.572c0,1.307-0.363,2.297-1.085,2.969c-0.722,0.673-1.754,1.007-3.1,1.007h-11.824
			c-2.55,0-3.822-1.324-3.822-3.977L377.649,949.084L377.649,949.084z"/>
		<path fill="#FFFFFF" d="M409.819,922.959c0-1.444,0.31-2.469,0.93-3.071s1.582-0.905,2.892-0.905h11.979
			c1.205,0,2.177,0.303,2.916,0.905s1.11,1.627,1.11,3.071v10.07c0,0.412-0.095,0.859-0.285,1.342s-0.458,0.948-0.8,1.395
			c-0.345,0.447-0.768,0.817-1.265,1.109c-0.5,0.292-1.06,0.44-1.677,0.44H413.64c-2.55,0-3.822-1.427-3.822-4.287L409.819,922.959
			L409.819,922.959z M409.819,949.084c0-1.102,0.31-2.046,0.93-2.839s1.582-1.187,2.892-1.187h11.824
			c0.412,0,0.859,0.095,1.342,0.285s0.93,0.465,1.342,0.828c0.412,0.363,0.764,0.782,1.057,1.265c0.292,0.483,0.44,1.032,0.44,1.652
			v57.572c0,1.307-0.363,2.297-1.085,2.969c-0.722,0.673-1.754,1.007-3.1,1.007h-11.824c-2.55,0-3.822-1.324-3.822-3.977
			L409.819,949.084L409.819,949.084z"/>
	</g>
</g>
<rect x="464.869" y="918.983" fill="#232323" width="7.045" height="91.58"/>
<g>
	<path fill="#232323" d="M507.137,925.633c0-1.765,0.845-2.649,2.533-2.649h35.248c3.265,0,6.333,0.609,9.204,1.832
		c2.871,1.222,5.368,2.885,7.488,4.988c2.12,2.106,3.79,4.586,5.009,7.439s1.832,5.939,1.832,9.243c0,3.043-0.546,5.879-1.634,8.51
		c-1.092,2.631-2.592,4.942-4.509,6.932c1.539,1.127,2.931,2.423,4.17,3.889s2.307,3.043,3.202,4.734s1.592,3.484,2.085,5.382
		c0.497,1.899,0.743,3.843,0.743,5.833c0,3.343-0.63,6.52-1.888,9.524c-1.257,3.008-2.969,5.653-5.128,7.946
		c-2.163,2.289-4.706,4.107-7.636,5.438c-2.931,1.332-6.069,2.001-9.412,2.001H509.67c-0.75,0-1.363-0.197-1.832-0.592
		c-0.469-0.395-0.704-1.004-0.704-1.832v-78.618H507.137z M552.166,946.767c0-1.427-0.254-2.761-0.761-4.001
		c-0.511-1.24-1.215-2.311-2.117-3.212c-0.902-0.902-1.987-1.606-3.248-2.113s-2.645-0.761-4.149-0.761h-18.464v20.401h18.295
		c1.508,0,2.899-0.261,4.181-0.789c1.279-0.525,2.381-1.247,3.304-2.17c0.923-0.923,1.648-2.011,2.177-3.269
		C551.902,949.595,552.166,948.232,552.166,946.767z M555.829,981.313c0-1.275-0.225-2.526-0.676-3.748
		c-0.451-1.219-1.074-2.318-1.863-3.297c-0.793-0.976-1.733-1.793-2.821-2.452c-1.092-0.659-2.275-1.099-3.558-1.324
		c-0.754-0.113-1.515-0.215-2.286-0.31s-1.55-0.141-2.342-0.141h-18.855v22.881h18.855c0.793,0,1.56-0.028,2.314-0.084
		c0.75-0.056,1.504-0.159,2.258-0.31c1.279-0.187,2.466-0.62,3.558-1.296s2.043-1.522,2.853-2.536
		c0.807-1.014,1.437-2.149,1.892-3.41C555.611,984.026,555.829,982.705,555.829,981.313z"/>
	<path fill="#232323" d="M600.802,972.691c0,3.156,0.451,5.995,1.353,8.51c0.902,2.518,2.17,4.649,3.804,6.397
		c1.634,1.747,3.589,3.082,5.861,4.001c2.272,0.919,4.797,1.381,7.58,1.381c2.931,0,5.562-0.486,7.89-1.465
		c2.328-0.976,4.29-2.356,5.889-4.142c1.596-1.782,2.818-3.927,3.663-6.425c0.845-2.497,1.268-5.248,1.268-8.256v-47.227
		c0-0.676,0.243-1.257,0.733-1.747c0.486-0.49,1.102-0.733,1.853-0.733h10.895c0.785,0,1.451,0.243,1.994,0.733
		c0.542,0.49,0.814,1.071,0.814,1.747v47.847c0,5.826-0.94,10.905-2.814,15.245c-1.877,4.339-4.41,7.957-7.601,10.849
		c-3.191,2.892-6.907,5.055-11.152,6.481c-4.241,1.427-8.728,2.142-13.459,2.142c-4.731,0-9.218-0.761-13.459-2.283
		c-4.244-1.522-7.96-3.748-11.152-6.678c-3.191-2.931-5.724-6.555-7.601-10.877s-2.814-9.278-2.814-14.878v-47.847
		c0-0.599,0.215-1.166,0.648-1.691c0.433-0.525,0.986-0.789,1.663-0.789h11.497c0.564,0,1.145,0.243,1.747,0.733
		c0.599,0.49,0.902,1.071,0.902,1.747L600.802,972.691L600.802,972.691z"/>
	<path fill="#232323" d="M718.811,945.301c-0.49,0-0.94-0.123-1.353-0.366c-0.416-0.243-0.884-0.574-1.409-0.986l-0.113-0.056
		c-0.715-0.712-1.634-1.5-2.761-2.367c-1.127-0.863-2.388-1.673-3.776-2.423s-2.885-1.391-4.48-1.916
		c-1.599-0.525-3.223-0.789-4.875-0.789c-2.106,0-3.963,0.236-5.579,0.704s-2.969,1.11-4.058,1.916
		c-1.092,0.807-1.916,1.758-2.48,2.846c-0.564,1.092-0.845,2.254-0.845,3.494c0,1.353,0.423,2.536,1.268,3.551
		c0.845,1.014,1.99,1.916,3.438,2.705s3.107,1.511,4.988,2.17c1.877,0.659,3.85,1.307,5.917,1.944
		c2.367,0.715,4.713,1.483,7.045,2.311c2.328,0.828,4.554,1.758,6.678,2.79c2.124,1.032,4.103,2.18,5.946,3.438
		c1.839,1.257,3.427,2.705,4.762,4.339c1.331,1.634,2.385,3.455,3.156,5.467c0.768,2.011,1.155,4.273,1.155,6.791
		c0,4.096-0.824,7.798-2.48,11.102s-3.938,6.132-6.847,8.482c-2.913,2.349-6.33,4.153-10.257,5.41
		c-3.927,1.257-8.144,1.888-12.652,1.888c-2.892,0-5.766-0.338-8.623-1.014c-2.857-0.676-5.6-1.634-8.228-2.874
		c-2.631-1.24-5.118-2.733-7.467-4.48s-4.445-3.712-6.284-5.889v0.056l-0.113-0.225c-0.828-0.94-1.24-1.803-1.24-2.592
		c0-0.412,0.113-0.807,0.338-1.184c0.225-0.377,0.564-0.789,1.014-1.24l1.86-1.86c0.564-0.486,1.166-1.032,1.803-1.634
		c0.638-0.599,1.275-1.145,1.916-1.634c0.638-0.49,1.229-0.902,1.775-1.24s0.986-0.507,1.324-0.507c0.525,0,1.014,0.169,1.465,0.507
		c0.451,0.338,0.828,0.659,1.127,0.958l0.225,0.225h-0.056c1.314,1.24,2.79,2.423,4.424,3.55c1.634,1.127,3.314,2.131,5.044,3.015
		c1.729,0.884,3.448,1.578,5.157,2.085c1.708,0.507,3.314,0.761,4.818,0.761c2.064,0,4.001-0.261,5.805-0.789
		c1.803-0.525,3.364-1.268,4.678-2.226c1.314-0.958,2.349-2.113,3.1-3.466c0.75-1.353,1.127-2.857,1.127-4.509
		s-0.49-3.071-1.465-4.255c-0.976-1.184-2.254-2.216-3.832-3.1c-1.578-0.881-3.353-1.641-5.326-2.283
		c-1.973-0.638-3.956-1.24-5.946-1.803c-4.586-1.391-8.594-2.892-12.032-4.509c-3.438-1.613-6.305-3.427-8.594-5.438
		c-2.293-2.008-4.012-4.262-5.157-6.763s-1.719-5.305-1.719-8.425c0-3.494,0.704-6.678,2.113-9.553
		c1.409-2.874,3.41-5.336,6.002-7.383c2.592-2.046,5.713-3.642,9.355-4.79c3.646-1.145,7.721-1.719,12.229-1.719
		c3.417,0,6.893,0.535,10.426,1.606c3.529,1.071,6.798,2.547,9.806,4.424c0.902,0.564,1.825,1.201,2.761,1.916
		c0.937,0.715,1.803,1.437,2.592,2.17s1.437,1.448,1.944,2.142s0.761,1.286,0.761,1.775c0,0.451-0.113,0.912-0.338,1.381
		c-0.225,0.468-0.507,0.891-0.845,1.268l-1.691,1.803v-0.056c-0.564,0.599-1.148,1.222-1.747,1.86
		c-0.602,0.641-1.201,1.212-1.803,1.719s-1.148,0.93-1.634,1.268C719.564,945.132,719.149,945.301,718.811,945.301z"/>
	<path fill="#232323" d="M745.693,925.464c0-0.676,0.204-1.257,0.616-1.747c0.412-0.49,1.029-0.733,1.853-0.733h11.176
		c0.638,0,1.236,0.225,1.796,0.676s0.842,1.053,0.842,1.803v78.731c0,1.655-0.881,2.48-2.642,2.48h-11.176
		c-1.648,0-2.473-0.824-2.473-2.48v-78.731L745.693,925.464L745.693,925.464z"/>
	<path fill="#232323" d="M780.353,925.52c0-0.715,0.218-1.314,0.648-1.803c0.43-0.49,1.043-0.733,1.832-0.733h12.962
		c0.525,0,1.025,0.123,1.493,0.366s0.891,0.63,1.268,1.155c6.425,9.169,12.793,18.27,19.105,27.305
		c6.312,9.035,12.68,18.14,19.105,27.305v-53.99c0.113-0.676,0.394-1.201,0.845-1.578c0.451-0.373,0.997-0.564,1.634-0.564h10.877
		c0.75,0,1.398,0.225,1.944,0.676c0.546,0.451,0.817,1.053,0.817,1.803v78.9c0,1.543-0.884,2.311-2.649,2.311h-12.229
		c-0.828,0-1.599-0.507-2.311-1.522c-6.611-9.581-13.198-19.151-19.753-28.714c-6.555-9.56-13.124-19.154-19.697-28.77v56.526
		c0,0.828-0.197,1.448-0.592,1.86c-0.394,0.412-1.064,0.62-2.001,0.62H782.83c-0.867,0-1.493-0.215-1.888-0.648
		c-0.394-0.433-0.592-1.025-0.592-1.775v-78.73H780.353z"/>
	<path fill="#232323" d="M871.088,925.689c0-1.803,0.828-2.705,2.48-2.705h54.328c0.976,0,1.67,0.275,2.085,0.821
		c0.412,0.546,0.62,1.236,0.62,2.064v9.954c0,0.68-0.233,1.282-0.705,1.81s-1.173,0.793-2.113,0.793h-40.07v17.076h30.884
		c0.75-0.074,1.353,0.084,1.803,0.479c0.451,0.394,0.676,1.064,0.676,2.001v10.201c0,0.676-0.19,1.279-0.564,1.803
		c-0.377,0.525-0.976,0.789-1.803,0.789h-30.996v20.458h41.535c1.05,0,1.747,0.225,2.085,0.676s0.507,1.152,0.507,2.092v10.296
		c0,1.585-0.824,2.374-2.48,2.374h-55.794c-0.676,0-1.257-0.187-1.747-0.564c-0.49-0.373-0.733-0.976-0.733-1.803L871.088,925.689
		L871.088,925.689z"/>
	<path fill="#232323" d="M992.932,945.301c-0.49,0-0.94-0.123-1.353-0.366c-0.416-0.243-0.884-0.574-1.409-0.986l-0.113-0.056
		c-0.715-0.712-1.634-1.5-2.761-2.367c-1.127-0.863-2.388-1.673-3.776-2.423s-2.885-1.391-4.48-1.916
		c-1.599-0.525-3.223-0.789-4.875-0.789c-2.106,0-3.963,0.236-5.579,0.704s-2.969,1.11-4.058,1.916
		c-1.092,0.807-1.916,1.758-2.48,2.846c-0.564,1.092-0.845,2.254-0.845,3.494c0,1.353,0.423,2.536,1.268,3.551
		c0.845,1.014,1.99,1.916,3.438,2.705s3.107,1.511,4.988,2.17c1.877,0.659,3.85,1.307,5.917,1.944
		c2.367,0.715,4.713,1.483,7.045,2.311c2.328,0.828,4.554,1.758,6.678,2.79c2.124,1.032,4.104,2.18,5.946,3.438
		c1.839,1.257,3.427,2.705,4.762,4.339c1.331,1.634,2.385,3.455,3.156,5.467c0.768,2.011,1.155,4.273,1.155,6.791
		c0,4.096-0.824,7.798-2.48,11.102s-3.938,6.132-6.847,8.482c-2.913,2.349-6.33,4.153-10.257,5.41
		c-3.927,1.257-8.144,1.888-12.652,1.888c-2.892,0-5.766-0.338-8.623-1.014c-2.857-0.676-5.6-1.634-8.228-2.874
		c-2.631-1.24-5.118-2.733-7.467-4.48s-4.445-3.712-6.284-5.889v0.056l-0.113-0.225c-0.828-0.94-1.24-1.803-1.24-2.592
		c0-0.412,0.113-0.807,0.338-1.184c0.225-0.377,0.564-0.789,1.014-1.24l1.86-1.86c0.564-0.486,1.166-1.032,1.803-1.634
		c0.638-0.599,1.275-1.145,1.916-1.634c0.638-0.49,1.229-0.902,1.775-1.24s0.986-0.507,1.324-0.507c0.525,0,1.014,0.169,1.465,0.507
		c0.451,0.338,0.828,0.659,1.127,0.958l0.225,0.225h-0.056c1.314,1.24,2.79,2.423,4.424,3.55c1.634,1.127,3.315,2.131,5.044,3.015
		c1.729,0.884,3.448,1.578,5.157,2.085s3.315,0.761,4.819,0.761c2.064,0,4.001-0.261,5.805-0.789
		c1.803-0.525,3.364-1.268,4.678-2.226c1.314-0.958,2.349-2.113,3.1-3.466c0.75-1.353,1.127-2.857,1.127-4.509
		s-0.49-3.071-1.465-4.255c-0.976-1.184-2.254-2.216-3.832-3.1c-1.578-0.881-3.353-1.641-5.326-2.283
		c-1.973-0.638-3.956-1.24-5.946-1.803c-4.586-1.391-8.594-2.892-12.032-4.509c-3.438-1.613-6.305-3.427-8.594-5.438
		c-2.293-2.008-4.012-4.262-5.157-6.763c-1.145-2.501-1.719-5.305-1.719-8.425c0-3.494,0.705-6.678,2.113-9.553
		c1.409-2.874,3.41-5.336,6.002-7.383c2.592-2.046,5.713-3.642,9.355-4.79c3.646-1.145,7.721-1.719,12.229-1.719
		c3.417,0,6.893,0.535,10.426,1.606c3.529,1.071,6.798,2.547,9.806,4.424c0.902,0.564,1.825,1.201,2.761,1.916
		c0.937,0.715,1.803,1.437,2.592,2.17s1.437,1.448,1.944,2.142c0.507,0.694,0.761,1.286,0.761,1.775
		c0,0.451-0.113,0.912-0.338,1.381c-0.225,0.468-0.507,0.891-0.845,1.268l-1.691,1.803v-0.056c-0.564,0.599-1.148,1.222-1.747,1.86
		c-0.602,0.641-1.201,1.212-1.803,1.719s-1.148,0.93-1.634,1.268C993.682,945.132,993.27,945.301,992.932,945.301z"/>
	<path fill="#232323" d="M1067.376,945.301c-0.49,0-0.94-0.123-1.353-0.366c-0.416-0.243-0.884-0.574-1.409-0.986l-0.113-0.056
		c-0.715-0.712-1.634-1.5-2.761-2.367c-1.127-0.863-2.388-1.673-3.776-2.423s-2.885-1.391-4.48-1.916
		c-1.599-0.525-3.223-0.789-4.875-0.789c-2.106,0-3.963,0.236-5.579,0.704c-1.617,0.469-2.969,1.11-4.058,1.916
		c-1.092,0.807-1.916,1.758-2.48,2.846c-0.564,1.092-0.845,2.254-0.845,3.494c0,1.353,0.423,2.536,1.268,3.551
		s1.99,1.916,3.438,2.705s3.107,1.511,4.988,2.17c1.877,0.659,3.85,1.307,5.917,1.944c2.367,0.715,4.713,1.483,7.045,2.311
		c2.328,0.828,4.554,1.758,6.678,2.79s4.104,2.18,5.946,3.438c1.839,1.257,3.427,2.705,4.762,4.339
		c1.331,1.634,2.385,3.455,3.156,5.467c0.768,2.011,1.155,4.273,1.155,6.791c0,4.096-0.824,7.798-2.48,11.102
		c-1.655,3.304-3.938,6.132-6.847,8.482c-2.913,2.349-6.33,4.153-10.257,5.41c-3.927,1.257-8.144,1.888-12.652,1.888
		c-2.892,0-5.766-0.338-8.623-1.014c-2.857-0.676-5.6-1.634-8.228-2.874c-2.631-1.24-5.118-2.733-7.467-4.48
		s-4.445-3.712-6.284-5.889v0.056l-0.113-0.225c-0.828-0.94-1.24-1.803-1.24-2.592c0-0.412,0.113-0.807,0.338-1.184
		c0.225-0.377,0.564-0.789,1.014-1.24l1.86-1.86c0.564-0.486,1.166-1.032,1.803-1.634c0.638-0.599,1.275-1.145,1.916-1.634
		c0.638-0.49,1.229-0.902,1.775-1.24s0.986-0.507,1.324-0.507c0.525,0,1.014,0.169,1.465,0.507c0.451,0.338,0.828,0.659,1.127,0.958
		l0.225,0.225h-0.056c1.314,1.24,2.79,2.423,4.424,3.55c1.634,1.127,3.315,2.131,5.044,3.015c1.729,0.884,3.448,1.578,5.157,2.085
		c1.708,0.507,3.314,0.761,4.818,0.761c2.064,0,4.001-0.261,5.805-0.789c1.803-0.525,3.364-1.268,4.678-2.226s2.349-2.113,3.1-3.466
		c0.75-1.353,1.127-2.857,1.127-4.509s-0.49-3.071-1.465-4.255c-0.976-1.184-2.254-2.216-3.832-3.1
		c-1.578-0.881-3.353-1.641-5.326-2.283c-1.973-0.638-3.956-1.24-5.946-1.803c-4.586-1.391-8.594-2.892-12.032-4.509
		c-3.438-1.613-6.305-3.427-8.594-5.438c-2.293-2.008-4.012-4.262-5.157-6.763s-1.719-5.305-1.719-8.425
		c0-3.494,0.705-6.678,2.113-9.553c1.409-2.874,3.41-5.336,6.002-7.383c2.592-2.046,5.713-3.642,9.355-4.79
		c3.646-1.145,7.721-1.719,12.229-1.719c3.417,0,6.893,0.535,10.426,1.606c3.529,1.071,6.798,2.547,9.806,4.424
		c0.902,0.564,1.825,1.201,2.762,1.916s1.803,1.437,2.592,2.17c0.789,0.733,1.437,1.448,1.944,2.142
		c0.507,0.694,0.761,1.286,0.761,1.775c0,0.451-0.113,0.912-0.338,1.381c-0.225,0.468-0.507,0.891-0.845,1.268l-1.691,1.803v-0.056
		c-0.564,0.599-1.148,1.222-1.747,1.86c-0.602,0.641-1.201,1.212-1.803,1.719s-1.148,0.93-1.634,1.268
		C1068.13,945.132,1067.714,945.301,1067.376,945.301z"/>
</g>
</svg>
