<?xml version="1.0" encoding="UTF-8" standalone="no"?>
<!DOCTYPE svg PUBLIC "-//W3C//DTD SVG 1.1//EN" "http://www.w3.org/Graphics/SVG/1.1/DTD/svg11.dtd">
<svg width="100%" height="100%" viewBox="0 0 54 54" version="1.1" xmlns="http://www.w3.org/2000/svg" xmlns:xlink="http://www.w3.org/1999/xlink" xml:space="preserve" xmlns:serif="http://www.serif.com/" style="fill-rule:evenodd;clip-rule:evenodd;stroke-linejoin:round;stroke-miterlimit:1.41421;">
    <g transform="matrix(1,0,0,1,-97.3612,-97.3918)">
        <g id="Layer1">
            <g transform="matrix(0.433005,0,0,0.433005,55.2033,55.2206)">
                <circle cx="159.716" cy="159.747" r="62.355" style="fill:rgb(35,35,35);"/>
            </g>
            <g transform="matrix(1,0,0,1,2.70921,5.30467)">
                <g transform="matrix(0.0715649,0,0,0.0700431,107.644,105.271)">
                    <circle cx="158" cy="144.4" r="28.8" style="fill:white;"/>
                </g>
                <g transform="matrix(0.0715649,0,0,0.0700431,107.644,105.271)">
                    <path d="M394.4,250.4C380.8,237.6 363.6,229.2 344.8,226.8L344.8,80.4C344.8,64.8 338.4,50.8 328.4,40.4C318,30 304,24 288.4,24L56.4,24C40.8,24 26.8,30.4 16.4,40.4C6,50.8 0,64.8 0,80.4L0,319.2C0,334.8 6.4,348.8 16.4,359.2C26.8,369.6 40.8,375.6 56.4,375.6L280.8,375.6C295.6,387.6 314,395.2 334.4,395.2C358,395.2 379.2,385.6 394.4,370.4C409.6,355.2 419.2,334 419.2,310.4C419.2,286.8 409.6,265.6 394.4,250.4ZM21.2,80.4C21.2,70.8 25.2,62 31.6,56C38,49.6 46.8,45.6 56.4,45.6L288.4,45.6C298,45.6 306.8,49.6 313.2,56C319.6,62.4 323.6,71.2 323.6,80.8L323.6,205.6L264.4,146.4C260.4,142.4 253.6,142 249.2,146.4L160,236L99.6,175.2C95.6,171.2 88.8,170.8 84.4,175.2L21.2,239.2L21.2,80.4ZM56,355.2L56,354.4C46.4,354.4 37.6,350.4 31.2,344C25.2,337.6 21.2,328.8 21.2,319.2L21.2,282L21.2,269.6L92,198.4L152.4,258.8C156.4,262.8 163.2,262.8 167.6,258.8L256.8,169.2L315.2,228C314,228.4 312.8,228.8 311.6,229.2C310,229.6 308.4,230 306.4,230.8C304.8,231.2 303.2,232 301.6,232.4C300.4,232.8 299.6,233.2 298.4,234C296.8,234.8 295.6,235.2 294.4,236C292.4,237.2 290.4,238.4 288.4,239.6C287.2,240.4 286.4,240.8 285.2,241.6C284.4,242 284,242.4 283.2,242.8C279.6,245.2 276.4,248 273.6,251.2C258.4,266.4 248.8,287.6 248.8,311.2C248.8,317.2 249.6,322.8 250.8,328.8C251.2,330.4 251.6,331.6 252,333.2C253.2,337.2 254.4,341.2 256,345.2L256,345.6C257.6,348.8 259.2,352.4 261.2,355.2L56,355.2ZM378.8,355.2C367.2,366.8 351.6,373.6 334,373.6C317.2,373.6 301.6,366.8 290.4,356C288.8,354.4 287.2,352.4 285.6,350.8C284.4,349.6 283.2,348 282,346.8C280.4,344.8 279.2,342.4 278,340C277.2,338.4 276.4,337.2 275.6,335.6C274.8,333.6 274,331.2 273.6,328.8C273.2,327.2 272.4,325.2 272,323.6C271.2,319.6 270.8,315.2 270.8,310.8C270.8,293.2 278,277.6 289.2,266C300.4,254.4 316.4,247.6 334,247.6C351.6,247.6 367.2,254.8 378.8,266C390.4,277.6 397.2,293.2 397.2,310.8C397.2,328 390,343.6 378.8,355.2Z" style="fill:white;fill-rule:nonzero;"/>
                </g>
                <g transform="matrix(0.0715649,0,0,0.0700431,107.644,105.271)">
                    <path d="M341.6,267.6C340.8,266.8 339.6,266 338,265.2C336.8,264.8 335.6,264.4 334.4,264.4L334,264.4L333.6,264.4C332.4,264.4 331.2,264.8 330,265.2C328.8,265.6 327.6,266.4 326.4,267.6L301.6,292.4C297.6,296.4 297.6,303.2 301.6,307.6C305.6,311.6 312.4,311.6 316.8,307.6L323.2,301.2L323.2,345.2C323.2,351.2 328,356 334,356C340,356 344.8,351.2 344.8,345.2L344.8,301.2L351.2,307.6C355.2,311.6 362,311.6 366.4,307.6C370.4,303.6 370.4,296.8 366.4,292.4L341.6,267.6Z" style="fill:white;fill-rule:nonzero;"/>
                </g>
            </g>
        </g>
    </g>
</svg>
