<?xml version="1.0" encoding="UTF-8" standalone="no"?>
<!DOCTYPE svg PUBLIC "-//W3C//DTD SVG 1.1//EN" "http://www.w3.org/Graphics/SVG/1.1/DTD/svg11.dtd">
<svg width="100%" height="100%" viewBox="0 0 16 16" version="1.1" xmlns="http://www.w3.org/2000/svg" xmlns:xlink="http://www.w3.org/1999/xlink" xml:space="preserve" xmlns:serif="http://www.serif.com/" style="fill-rule:evenodd;clip-rule:evenodd;stroke-linejoin:round;stroke-miterlimit:1.41421;">
    <g transform="matrix(1,0,0,1,-1562.99,-36.9967)">
        <path id="close" d="M1563.2,38.248C1562.92,37.967 1562.92,37.499 1563.2,37.208C1563.5,36.926 1563.95,36.926 1564.25,37.208L1570.49,43.463L1576.75,37.208C1577.03,36.926 1577.5,36.926 1577.78,37.208C1578.07,37.499 1578.07,37.968 1577.78,38.248L1571.53,44.494L1577.78,50.75C1578.07,51.031 1578.07,51.5 1577.78,51.791C1577.5,52.072 1577.03,52.072 1576.75,51.791L1570.49,45.535L1564.25,51.791C1563.95,52.072 1563.5,52.072 1563.2,51.791C1562.92,51.5 1562.92,51.031 1563.2,50.75L1569.45,44.494L1563.2,38.248Z" style="fill:white;fill-rule:nonzero;"/>
    </g>
</svg>
