<?xml version="1.0" encoding="UTF-8" standalone="no"?>
<!DOCTYPE svg PUBLIC "-//W3C//DTD SVG 1.1//EN" "http://www.w3.org/Graphics/SVG/1.1/DTD/svg11.dtd">
<svg width="100%" height="100%" viewBox="0 0 24 24" version="1.1" xmlns="http://www.w3.org/2000/svg" xmlns:xlink="http://www.w3.org/1999/xlink" xml:space="preserve" xmlns:serif="http://www.serif.com/" style="fill-rule:evenodd;clip-rule:evenodd;stroke-linejoin:round;stroke-miterlimit:1.41421;">
    <path d="M17.788,16.527L23.835,22.574C24.055,22.794 24.055,23.15 23.835,23.371L23.371,23.835C23.15,24.055 22.794,24.055 22.574,23.835L16.527,17.788C16.424,17.68 16.363,17.54 16.363,17.39L16.363,16.912C14.624,18.515 12.304,19.499 9.75,19.499C4.364,19.499 0,15.135 0,9.75C0,4.364 4.364,0 9.75,0C15.135,0 19.499,4.364 19.499,9.75C19.499,12.304 18.515,14.624 16.907,16.363L17.39,16.363C17.54,16.363 17.68,16.42 17.788,16.527ZM1.5,9.75C1.5,14.31 5.189,17.999 9.75,17.999C14.31,17.999 17.999,14.31 17.999,9.75C17.999,5.189 14.31,1.5 9.75,1.5C5.189,1.5 1.5,5.189 1.5,9.75Z" style="fill:white;"/>
</svg>
