<svg width="34" height="34" viewBox="0 0 34 34" fill="none" xmlns="http://www.w3.org/2000/svg">
<path d="M25.8094 24.312L19.0329 17.5356L25.8094 10.7591C25.9966 10.5719 25.9966 10.2687 25.8094 10.0815L24.4541 8.72618C24.2669 8.53898 23.9636 8.53898 23.7764 8.72618L17 15.5026L10.2236 8.72618C10.0364 8.53898 9.73312 8.53898 9.54592 8.72618L8.19063 10.0815C8.00343 10.2687 8.00343 10.5719 8.19063 10.7591L14.9671 17.5356L8.19063 24.312C8.00343 24.4992 8.00343 24.8024 8.19063 24.9896L9.54592 26.3449C9.73312 26.5321 10.0364 26.5321 10.2236 26.3449L17 19.5685L23.7764 26.3449C23.9636 26.5321 24.2669 26.5321 24.4541 26.3449L25.8094 24.9896C25.9966 24.8024 25.9966 24.4992 25.8094 24.312Z" fill="white"/>
</svg>
